# xmcd CD database file
#
# Track frame offsets:
#	150
#	21625
#	42200
#
# Disc length: 845 seconds
#
# Revision: 0
# Processed by: cddbd v1.5.1PL0 Copyright (c) Steve Scherf et al.
# Submitted via: CDex 1.51
#
DISCID=21034b03
DTITLE=WANDS - 寂しさは秋の色
DYEAR=1994
DGENRE=J-Rock
TTITLE0=寂しさは秋の色
TTITLE1=STRAY CAT
TTITLE2=寂しさは秋の色（オリジナルカラオケ）
EXTD=YEAR: 1994
EXTT0=
EXTT1=
EXTT2=
PLAYORDER=
